%TF.GenerationSoftware,KiCad,Pcbnew,8.0.4*%
%TF.CreationDate,2024-08-28T09:08:14+01:00*%
%TF.ProjectId,qmmister-sd-relocate,716d6d69-7374-4657-922d-73642d72656c,rev?*%
%TF.SameCoordinates,Original*%
%TF.FileFunction,Profile,NP*%
%FSLAX46Y46*%
G04 Gerber Fmt 4.6, Leading zero omitted, Abs format (unit mm)*
G04 Created by KiCad (PCBNEW 8.0.4) date 2024-08-28 09:08:14*
%MOMM*%
%LPD*%
G01*
G04 APERTURE LIST*
%TA.AperFunction,Profile*%
%ADD10C,0.050000*%
%TD*%
G04 APERTURE END LIST*
D10*
X47550000Y-51500000D02*
X39850000Y-51500000D01*
X42300000Y-35750000D02*
G75*
G02*
X43050000Y-35000000I750000J0D01*
G01*
X39650000Y-75750000D02*
X36250000Y-75750000D01*
X56350000Y-81250000D02*
X56350000Y-74750000D01*
X42300000Y-37250000D02*
X42300000Y-35750000D01*
X46000000Y-68000000D02*
X46000000Y-75250000D01*
X39650000Y-59523223D02*
X39650000Y-75750000D01*
X47000000Y-62750000D02*
X51000000Y-62750000D01*
X39650000Y-59523223D02*
X39850000Y-59273223D01*
X51000000Y-68000000D02*
X51000000Y-62750000D01*
X36250000Y-75750000D02*
X36250000Y-81250000D01*
X61250000Y-51500000D02*
X51550000Y-51500000D01*
X60250000Y-60000000D02*
X55350000Y-60000000D01*
X47000000Y-53500000D02*
X47000000Y-62750000D01*
X55350000Y-60000000D02*
X55350000Y-73200000D01*
X51550000Y-51500000D02*
G75*
G02*
X51550000Y-49500000I0J1000000D01*
G01*
X60250000Y-53500000D02*
X47000000Y-53500000D01*
X46000000Y-68000000D02*
X51000000Y-68000000D01*
X43050000Y-35000000D02*
X56050000Y-35000000D01*
X56050000Y-35000000D02*
G75*
G02*
X57050000Y-36000000I0J-1000000D01*
G01*
X47550000Y-49500000D02*
G75*
G02*
X47550000Y-51500000I0J-1000000D01*
G01*
X47550000Y-49500000D02*
X42300000Y-49500000D01*
X52100000Y-73200000D02*
X55350000Y-73200000D01*
X57050000Y-36000000D02*
X57050000Y-49500000D01*
X61250000Y-74750000D02*
X61250000Y-51500000D01*
X42300000Y-49500000D02*
X42300000Y-37250000D01*
X57050000Y-49500000D02*
X51550000Y-49500000D01*
X56350000Y-74750000D02*
X61250000Y-74750000D01*
X39850000Y-59273223D02*
X39850000Y-51500000D01*
X52100000Y-75250000D02*
X52100000Y-73200000D01*
X60250000Y-60000000D02*
X60250000Y-53500000D01*
X46000000Y-75250000D02*
X52100000Y-75250000D01*
X36250000Y-81250000D02*
X56350000Y-81250000D01*
M02*
