M48
; DRILL file {KiCad 8.0.4} date 2024-08-27T23:39:23+0100
; FORMAT={-:-/ absolute / inch / decimal}
; #@! TF.CreationDate,2024-08-27T23:39:23+01:00
; #@! TF.GenerationSoftware,Kicad,Pcbnew,8.0.4
; #@! TF.FileFunction,Plated,1,2,PTH
FMAT,2
INCH
; #@! TA.AperFunction,Plated,PTH,ViaDrill
T1C0.0118
; #@! TA.AperFunction,Plated,PTH,ComponentDrill
T2C0.0197
; #@! TA.AperFunction,Plated,PTH,ComponentDrill
T3C0.0354
; #@! TA.AperFunction,Plated,PTH,ComponentDrill
T4C0.0472
; #@! TA.AperFunction,Plated,PTH,ComponentDrill
T5C0.0591
%
G90
G05
T1
X1.6476Y-2.3522
X1.6634Y-2.5492
X1.6791Y-2.3526
X1.7028Y-2.5492
X1.7126Y-2.3524
X1.7421Y-2.5492
X1.7441Y-1.5945
X1.7736Y-1.5157
X1.8031Y-1.8406
X1.813Y-1.6142
X1.8524Y-1.6535
X1.872Y-1.8799
X1.8819Y-1.9173
X1.9606Y-1.5354
X1.9902Y-1.6043
X1.9931Y-1.8966
X2.0098Y-1.5157
X2.0098Y-1.6732
X2.0295Y-1.8799
X2.0689Y-1.8799
T5
X1.4961Y-3.0413
X1.4961Y-3.1413
X2.2524Y-2.474
X2.2524Y-2.574
X2.2524Y-2.674
X2.2524Y-2.774
X2.2524Y-2.874
X2.3524Y-2.474
X2.3524Y-2.574
X2.3524Y-2.674
X2.3524Y-2.774
X2.3524Y-2.874
T2
G00X1.7008Y-1.3739
M15
G01X1.7008Y-1.364
M16
G05
G00X1.7441Y-1.3739
M15
G01X1.7441Y-1.364
M16
G05
G00X1.7874Y-1.3739
M15
G01X1.7874Y-1.364
M16
G05
G00X1.8307Y-1.3739
M15
G01X1.8307Y-1.364
M16
G05
G00X1.874Y-1.3739
M15
G01X1.874Y-1.364
M16
G05
G00X1.9173Y-1.3739
M15
G01X1.9173Y-1.364
M16
G05
G00X1.9606Y-1.3739
M15
G01X1.9606Y-1.364
M16
G05
G00X2.0039Y-1.3739
M15
G01X2.0039Y-1.364
M16
G05
G00X2.0472Y-1.3739
M15
G01X2.0472Y-1.364
M16
G05
T3
G00X1.6535Y-1.4016
M15
G01X1.6535Y-1.3937
M16
G05
G00X1.6549Y-1.7923
M15
G01X1.6549Y-1.7589
M16
G05
G00X2.2553Y-1.7923
M15
G01X2.2553Y-1.7589
M16
G05
T4
G00X2.2455Y-1.3965
M15
G01X2.2455Y-1.3808
M16
G05
M30
