%TF.GenerationSoftware,KiCad,Pcbnew,8.0.4*%
%TF.CreationDate,2024-08-28T09:08:14+01:00*%
%TF.ProjectId,qmmister-sd-relocate,716d6d69-7374-4657-922d-73642d72656c,rev?*%
%TF.SameCoordinates,Original*%
%TF.FileFunction,Soldermask,Top*%
%TF.FilePolarity,Negative*%
%FSLAX46Y46*%
G04 Gerber Fmt 4.6, Leading zero omitted, Abs format (unit mm)*
G04 Created by KiCad (PCBNEW 8.0.4) date 2024-08-28 09:08:14*
%MOMM*%
%LPD*%
G01*
G04 APERTURE LIST*
%ADD10R,1.100000X0.300000*%
%ADD11R,3.100000X2.300000*%
%ADD12C,1.800000*%
%ADD13C,0.900000*%
%ADD14R,0.700000X1.600000*%
%ADD15R,1.200000X2.200000*%
%ADD16R,1.200000X1.400000*%
%ADD17C,0.500000*%
%ADD18R,0.300000X1.100000*%
%ADD19R,2.300000X3.100000*%
%ADD20R,1.600000X1.400000*%
G04 APERTURE END LIST*
D10*
%TO.C,J3*%
X40800000Y-59920000D03*
X40800000Y-59420000D03*
X40800000Y-58920000D03*
X40800000Y-58420000D03*
X40800000Y-57920000D03*
X40800000Y-57420000D03*
X40800000Y-56920000D03*
X40800000Y-56420000D03*
X40800000Y-55920000D03*
D11*
X42500000Y-61590000D03*
X42500000Y-54250000D03*
%TD*%
D12*
%TO.C,J6*%
X59750000Y-73000000D03*
X57210000Y-73000000D03*
X59750000Y-70460000D03*
X57210000Y-70460000D03*
X59750000Y-67920000D03*
X57210000Y-67920000D03*
X59750000Y-65380000D03*
X57210000Y-65380000D03*
X59750000Y-62840000D03*
X57210000Y-62840000D03*
%TD*%
D13*
%TO.C,J2*%
X51050000Y-77000000D03*
X43050000Y-77000000D03*
D14*
X50250000Y-66500000D03*
X49150000Y-66500000D03*
X48050000Y-66500000D03*
X46950000Y-66500000D03*
X45850000Y-66500000D03*
X44750000Y-66500000D03*
X43650000Y-66500000D03*
X42550000Y-66500000D03*
X41450000Y-66500000D03*
D15*
X55750000Y-76600000D03*
X40250000Y-76600000D03*
D16*
X40250000Y-67000000D03*
%TD*%
D17*
%TO.C,mouse-bite-2mm-slot*%
X48800000Y-49750000D03*
X48800000Y-51250000D03*
X49550000Y-49750000D03*
X49550000Y-51250000D03*
X50300000Y-49750000D03*
X50300000Y-51250000D03*
%TD*%
D18*
%TO.C,J4*%
X51550000Y-46025000D03*
X51050000Y-46025000D03*
X50550000Y-46025000D03*
X50050000Y-46025000D03*
X49550000Y-46025000D03*
X49050000Y-46025000D03*
X48550000Y-46025000D03*
X48050000Y-46025000D03*
X47550000Y-46025000D03*
D19*
X53220000Y-44325000D03*
X45880000Y-44325000D03*
%TD*%
D14*
%TO.C,J1*%
X52000000Y-34771855D03*
X50900000Y-34771855D03*
X49800000Y-34771855D03*
X48700000Y-34771855D03*
X47600000Y-34771855D03*
X46500000Y-34771855D03*
X45400000Y-34771855D03*
X44300000Y-34771855D03*
X43200000Y-34771855D03*
D15*
X57284968Y-45100000D03*
D20*
X57034968Y-35571855D03*
D15*
X42034968Y-45100000D03*
D16*
X42000000Y-35500000D03*
%TD*%
D12*
%TO.C,J5*%
X38000000Y-77250000D03*
X38000000Y-79790000D03*
%TD*%
M02*
