%TF.GenerationSoftware,KiCad,Pcbnew,8.0.4*%
%TF.CreationDate,2024-08-28T09:08:14+01:00*%
%TF.ProjectId,qmmister-sd-relocate,716d6d69-7374-4657-922d-73642d72656c,rev?*%
%TF.SameCoordinates,Original*%
%TF.FileFunction,Legend,Top*%
%TF.FilePolarity,Positive*%
%FSLAX46Y46*%
G04 Gerber Fmt 4.6, Leading zero omitted, Abs format (unit mm)*
G04 Created by KiCad (PCBNEW 8.0.4) date 2024-08-28 09:08:14*
%MOMM*%
%LPD*%
G01*
G04 APERTURE LIST*
%ADD10C,0.150000*%
%ADD11C,0.120000*%
G04 APERTURE END LIST*
D10*
X38504819Y-58253333D02*
X39219104Y-58253333D01*
X39219104Y-58253333D02*
X39361961Y-58300952D01*
X39361961Y-58300952D02*
X39457200Y-58396190D01*
X39457200Y-58396190D02*
X39504819Y-58539047D01*
X39504819Y-58539047D02*
X39504819Y-58634285D01*
X38504819Y-57872380D02*
X38504819Y-57253333D01*
X38504819Y-57253333D02*
X38885771Y-57586666D01*
X38885771Y-57586666D02*
X38885771Y-57443809D01*
X38885771Y-57443809D02*
X38933390Y-57348571D01*
X38933390Y-57348571D02*
X38981009Y-57300952D01*
X38981009Y-57300952D02*
X39076247Y-57253333D01*
X39076247Y-57253333D02*
X39314342Y-57253333D01*
X39314342Y-57253333D02*
X39409580Y-57300952D01*
X39409580Y-57300952D02*
X39457200Y-57348571D01*
X39457200Y-57348571D02*
X39504819Y-57443809D01*
X39504819Y-57443809D02*
X39504819Y-57729523D01*
X39504819Y-57729523D02*
X39457200Y-57824761D01*
X39457200Y-57824761D02*
X39409580Y-57872380D01*
X57634676Y-39590332D02*
X58091819Y-39590332D01*
X58091819Y-39590332D02*
X58183247Y-39620809D01*
X58183247Y-39620809D02*
X58244200Y-39681761D01*
X58244200Y-39681761D02*
X58274676Y-39773190D01*
X58274676Y-39773190D02*
X58274676Y-39834142D01*
X58274676Y-38950332D02*
X58274676Y-39316047D01*
X58274676Y-39133190D02*
X57634676Y-39133190D01*
X57634676Y-39133190D02*
X57726104Y-39194142D01*
X57726104Y-39194142D02*
X57787057Y-39255094D01*
X57787057Y-39255094D02*
X57817533Y-39316047D01*
D11*
%TO.C,J3*%
X41600000Y-59720000D02*
X41600000Y-60120000D01*
X41600000Y-60120000D02*
X42000000Y-59920000D01*
X42000000Y-59920000D02*
X41600000Y-59720000D01*
X44190000Y-52845000D02*
X44790000Y-52845000D01*
X44190000Y-52955000D02*
X44190000Y-52845000D01*
X44190000Y-62885000D02*
X44190000Y-62995000D01*
X44190000Y-62995000D02*
X44790000Y-62995000D01*
D10*
%TO.C,J2*%
X40534968Y-75271855D02*
X40534968Y-68021855D01*
X40534968Y-78510928D02*
X40534968Y-78032783D01*
X40534968Y-81000000D02*
X40534968Y-78500000D01*
X40534968Y-81000000D02*
X41550000Y-81000000D01*
X41550000Y-81000000D02*
X47050000Y-81000000D01*
X41800000Y-78500000D02*
X40534968Y-78500000D01*
X47050000Y-79800000D02*
X47050000Y-81000000D01*
X47050000Y-81000000D02*
X52550000Y-81000000D01*
X52484968Y-81000000D02*
X55284968Y-81000000D01*
X53884968Y-78500000D02*
X55284968Y-78500000D01*
X55284968Y-78500000D02*
X55284968Y-78021855D01*
X55284968Y-81000000D02*
X55284968Y-78500000D01*
D11*
%TO.C,J4*%
X44475000Y-42635000D02*
X44475000Y-42035000D01*
X44585000Y-42635000D02*
X44475000Y-42635000D01*
X51350000Y-45225000D02*
X51750000Y-45225000D01*
X51550000Y-44825000D02*
X51350000Y-45225000D01*
X51750000Y-45225000D02*
X51550000Y-44825000D01*
X54515000Y-42635000D02*
X54625000Y-42635000D01*
X54625000Y-42635000D02*
X54625000Y-42035000D01*
D10*
%TO.C,J1*%
X42284968Y-43771855D02*
X42284968Y-36521855D01*
X42284968Y-47010928D02*
X42284968Y-46532783D01*
X42284968Y-49500000D02*
X42284968Y-47000000D01*
X42284968Y-49500000D02*
X43300000Y-49500000D01*
X43300000Y-49500000D02*
X48800000Y-49500000D01*
X48800000Y-49500000D02*
X54300000Y-49500000D01*
X54234968Y-49500000D02*
X57034968Y-49500000D01*
X55534968Y-35021855D02*
X52784968Y-35021855D01*
X57034968Y-43771855D02*
X57034968Y-36521855D01*
X57034968Y-47000000D02*
X57034968Y-46521855D01*
X57034968Y-49500000D02*
X57034968Y-47000000D01*
%TD*%
M02*
